<svg width="324" height="325" viewBox="0 0 324 325" fill="none" xmlns="http://www.w3.org/2000/svg">
<path d="M292.514 70.9033L291.018 68.4424C278.396 47.9261 255.574 35.5437 231.509 37.0462C228.411 37.2394 225.331 37.6572 222.293 38.2961C200.417 42.92 181.384 59.2593 173.489 80.1836C168.853 92.4882 167.551 106.651 158.75 116.45C147.287 129.162 127.826 129.557 110.723 129.033C93.6195 128.508 74.1394 128.955 62.735 141.72C55.5918 149.685 53.3252 161.051 53.9015 171.756C55.4234 200.089 75.4217 225.43 100.853 238.026C126.285 250.622 156.224 251.749 184.058 246.205C223.051 238.434 260.133 217.134 282.418 184.209C304.702 151.285 310.349 106.438 292.514 70.9033Z" fill="#EBEBEB"/>
<path d="M294.366 298.545V224.07H170.024C170.024 224.07 167.13 298.545 170.024 298.545H294.366Z" fill="#455A64"/>
<path d="M294.366 224.07L240.796 273.593H119.498L169.513 223.578L294.366 224.07Z" fill="#455A64"/>
<path d="M240.796 273.593H119.498V298.545H240.796V273.593Z" fill="#455A64"/>
<path d="M168.716 273.593L169.513 223.578L294.366 224.07L240.795 273.593H168.716Z" fill="#455A64"/>
<path d="M280.714 230.753L280.067 230.617C281.334 223.439 281.389 216.099 280.229 208.903C278.435 198.392 272.742 184.637 255.827 178.795L256.034 178.18C273.26 184.132 279.05 198.127 280.87 208.812C282.042 216.083 281.989 223.499 280.714 230.753Z" fill="#263238"/>
<path d="M246.562 173.382L246.413 173.684C245.685 175.155 246.289 176.938 247.761 177.666L253.253 180.38C254.725 181.107 256.507 180.504 257.235 179.032L257.384 178.73C258.111 177.259 257.508 175.476 256.036 174.748L250.544 172.034C249.072 171.307 247.289 171.91 246.562 173.382Z" fill="#263238"/>
<path d="M240.796 298.545C240.796 298.545 240.796 298.506 240.796 298.429C240.796 298.351 240.796 298.228 240.796 298.085C240.796 297.762 240.796 297.321 240.796 296.745C240.796 295.56 240.796 293.843 240.75 291.674C240.75 287.29 240.718 281.053 240.692 273.593V273.528L240.737 273.489L258.352 257.176L283.745 233.713L291.516 226.628L293.634 224.717L294.191 224.225C294.252 224.166 294.317 224.112 294.385 224.063C294.385 224.063 294.334 224.135 294.21 224.251L293.679 224.769L291.607 226.712L283.939 233.875L258.553 257.409L240.893 273.735L240.938 273.625C240.938 281.086 240.893 287.322 240.88 291.706C240.88 293.876 240.847 295.592 240.841 296.777C240.841 297.354 240.841 297.794 240.841 298.118C240.841 298.26 240.841 298.37 240.841 298.461C240.841 298.552 240.796 298.545 240.796 298.545Z" fill="#263238"/>
<path d="M239.818 273.735C239.818 273.826 212.857 273.904 179.59 273.904C146.322 273.904 119.362 273.826 119.362 273.735C119.362 273.644 146.322 273.56 179.59 273.56C212.857 273.56 239.818 273.625 239.818 273.735Z" fill="#263238"/>
<path d="M234.294 273.735C234.294 273.735 234.365 273.651 234.52 273.502L235.22 272.854L237.953 270.264L248.314 260.511L285.04 226.078L285.144 226.337H229.734H172.097L172.201 226.291L137.592 260.647L127.82 270.309L125.229 272.854L124.582 273.502C124.433 273.651 124.349 273.722 124.349 273.722C124.349 273.722 124.42 273.638 124.569 273.489L125.216 272.842L127.807 270.251L137.521 260.537L172.039 226.097L172.084 226.058H172.149H229.786H285.196H285.578L285.299 226.317L248.509 260.641L238.089 270.322L235.323 272.88L234.611 273.528L234.294 273.735Z" fill="#263238"/>
<path d="M169.519 273.981C169.429 273.981 169.351 263.794 169.351 251.231C169.351 238.667 169.429 228.474 169.519 228.474C169.61 228.474 169.688 238.661 169.688 251.231C169.688 263.801 169.617 273.981 169.519 273.981Z" fill="#263238"/>
<g opacity="0.4">
<path d="M239.06 296.343L238.276 295.359C238.004 295.042 237.661 294.666 237.246 294.226C236.832 293.785 236.32 293.312 235.699 292.827C234.218 291.622 232.588 290.614 230.848 289.828C228.543 288.789 226.103 288.076 223.601 287.711C220.565 287.28 217.486 287.256 214.444 287.639C210.953 288.081 207.506 288.82 204.14 289.848C200.579 290.884 196.9 292.192 193.06 293.468C189.111 294.831 185.07 295.913 180.969 296.706C176.847 297.43 172.65 297.635 168.476 297.315C164.435 297.043 160.569 296.46 156.897 295.883C153.225 295.307 149.735 294.731 146.451 294.349C143.408 293.99 140.345 293.821 137.281 293.843C132.835 293.834 128.421 294.598 124.238 296.104C123.506 296.382 122.859 296.641 122.295 296.913C121.827 297.106 121.369 297.322 120.922 297.561L119.815 298.163L120.909 297.515C121.266 297.302 121.732 297.088 122.276 296.829C122.82 296.57 123.467 296.291 124.219 296.006C128.415 294.515 132.841 293.772 137.294 293.811C140.362 293.781 143.429 293.944 146.477 294.297C149.767 294.679 153.258 295.242 156.93 295.819C160.601 296.395 164.461 296.971 168.496 297.243C172.661 297.56 176.848 297.356 180.962 296.635C185.056 295.83 189.088 294.737 193.027 293.364C196.868 292.069 200.546 290.774 204.121 289.751C207.495 288.73 210.948 287.994 214.444 287.549C217.496 287.174 220.583 287.205 223.627 287.639C226.136 288.015 228.582 288.736 230.893 289.783C232.635 290.576 234.265 291.593 235.744 292.807C236.391 293.299 236.851 293.805 237.292 294.219C237.732 294.634 238.043 295.048 238.308 295.365L239.06 296.343Z" fill="white"/>
</g>
<g opacity="0.4">
<path d="M178.294 279.292L176.889 280.095C175.956 280.613 174.558 281.332 172.699 282.141C167.427 284.395 161.814 285.748 156.094 286.143C152.146 286.421 148.179 286.232 144.275 285.58C143.719 285.535 143.202 285.277 142.831 284.861C142.75 284.739 142.701 284.599 142.687 284.453C142.674 284.307 142.696 284.161 142.753 284.026C142.867 283.759 143.059 283.534 143.304 283.378C143.786 283.093 144.299 282.863 144.832 282.692L146.412 282.083C148.549 281.325 150.777 280.619 153.096 280.017C162.376 277.595 173.01 276.779 184.039 277.524C185.43 277.58 186.781 278.002 187.957 278.748C188.524 279.144 188.994 279.664 189.33 280.27C189.672 280.875 189.811 281.574 189.725 282.264C189.61 282.937 189.348 283.576 188.957 284.136C188.566 284.696 188.057 285.163 187.464 285.502C186.309 286.15 185.059 286.613 183.76 286.875C178.891 288.071 173.948 288.937 168.962 289.466C160.52 290.32 152.027 290.564 143.55 290.197C136.31 289.932 130.468 289.485 126.427 289.181C122.386 288.876 120.158 288.676 120.158 288.676L126.434 289.129C130.468 289.414 136.316 289.848 143.55 290.107C152.024 290.455 160.512 290.2 168.949 289.343C173.928 288.813 178.866 287.948 183.728 286.752C185.007 286.488 186.239 286.029 187.38 285.392C187.952 285.062 188.444 284.611 188.824 284.071C189.203 283.531 189.46 282.914 189.576 282.264C189.625 281.597 189.492 280.929 189.189 280.332C188.887 279.735 188.427 279.232 187.859 278.877C186.705 278.146 185.378 277.73 184.013 277.673C173.003 276.915 162.376 277.744 153.115 280.16C150.797 280.755 148.582 281.455 146.438 282.219L144.858 282.815C144.339 282.979 143.838 283.196 143.362 283.462C143.138 283.604 142.958 283.806 142.844 284.045C142.796 284.163 142.777 284.29 142.789 284.417C142.802 284.543 142.845 284.665 142.915 284.771C143.273 285.151 143.761 285.383 144.282 285.418C148.177 286.071 152.135 286.264 156.075 285.994C161.788 285.612 167.396 284.274 172.667 282.038C174.525 281.241 175.905 280.529 176.863 280.017L178.294 279.292Z" fill="white"/>
</g>
<g opacity="0.4">
<path d="M238.076 278.916C238.076 278.916 236.016 279.272 232.642 279.512C230.958 279.635 228.944 279.7 226.71 279.68C224.476 279.661 222.021 279.512 219.457 279.233C216.892 278.955 214.47 278.528 212.281 278.074C210.092 277.621 208.15 277.103 206.53 276.604C203.292 275.633 201.35 274.836 201.35 274.836L201.706 274.946L202.736 275.302C203.182 275.464 203.726 275.652 204.367 275.846C205.009 276.041 205.727 276.293 206.543 276.494C208.162 276.98 210.112 277.465 212.294 277.932C214.477 278.398 216.899 278.787 219.457 279.078C222.015 279.369 224.469 279.492 226.697 279.538C228.925 279.583 230.939 279.538 232.623 279.395C233.465 279.363 234.229 279.279 234.896 279.227C235.563 279.175 236.139 279.11 236.606 279.052L237.687 278.929L238.076 278.916Z" fill="white"/>
</g>
<g opacity="0.4">
<path d="M284.432 296.512C284.432 296.512 284.548 296.317 284.794 295.955C285.04 295.592 285.39 295.055 285.83 294.355C286.363 293.502 286.843 292.618 287.268 291.706C287.839 290.508 288.211 289.223 288.369 287.905C288.547 286.297 288.199 284.675 287.378 283.281C286.396 281.708 284.97 280.461 283.279 279.7C281.404 278.885 279.371 278.498 277.327 278.566C275.14 278.629 272.968 278.94 270.851 279.492C269.75 279.739 268.695 280.101 267.652 280.431C266.609 280.762 265.599 281.176 264.641 281.636C262.77 282.466 260.961 283.427 259.226 284.511C256.292 286.356 253.525 288.453 250.956 290.78C248.761 292.762 247.071 294.491 245.963 295.696L244.668 297.107L244.215 297.593C244.215 297.593 244.804 296.894 245.912 295.65C247.019 294.407 248.69 292.691 250.879 290.696C253.441 288.359 256.204 286.253 259.136 284.401C260.873 283.315 262.684 282.352 264.556 281.519C265.521 281.053 266.551 280.703 267.581 280.308C268.61 279.913 269.692 279.609 270.819 279.363C272.951 278.802 275.142 278.491 277.347 278.437C279.411 278.368 281.464 278.762 283.356 279.59C285.068 280.363 286.51 281.628 287.501 283.223C288.327 284.638 288.675 286.283 288.492 287.911C288.325 289.239 287.944 290.532 287.365 291.739C286.932 292.649 286.443 293.531 285.902 294.381C284.982 295.754 284.432 296.512 284.432 296.512Z" fill="white"/>
</g>
<g opacity="0.4">
<path d="M278.175 299.555C278.175 299.555 278.091 299.413 277.962 299.128C277.79 298.713 277.672 298.278 277.612 297.833C277.528 297.115 277.544 296.39 277.657 295.676C277.808 294.735 278.013 293.803 278.272 292.885C278.597 291.782 278.795 290.646 278.862 289.498C278.919 288.845 278.846 288.188 278.648 287.563C278.451 286.939 278.131 286.359 277.709 285.858C277.191 285.352 276.572 284.961 275.892 284.711C275.212 284.461 274.488 284.358 273.765 284.408C272.199 284.47 270.653 284.774 269.18 285.308C263.92 286.979 258.988 289.547 254.602 292.898C253.278 293.911 252.007 294.992 250.794 296.136C250.36 296.538 250.043 296.868 249.816 297.082C249.59 297.295 249.473 297.412 249.473 297.412C249.473 297.412 249.914 296.926 250.768 296.117C251.972 294.957 253.236 293.863 254.557 292.84C258.93 289.453 263.865 286.86 269.135 285.178C270.62 284.639 272.18 284.336 273.759 284.278C274.499 284.228 275.241 284.335 275.937 284.593C276.632 284.851 277.265 285.253 277.793 285.774C278.226 286.287 278.553 286.881 278.754 287.522C278.956 288.162 279.027 288.836 278.965 289.504C278.893 290.66 278.689 291.802 278.357 292.911C278.088 293.824 277.872 294.751 277.709 295.689C277.593 296.396 277.572 297.114 277.644 297.826C277.7 298.269 277.809 298.704 277.968 299.122L278.175 299.555Z" fill="white"/>
</g>
<g opacity="0.4">
<path d="M269.323 297.755C269.04 297.399 268.726 297.07 268.383 296.771C267.529 296.076 266.467 295.686 265.366 295.663C264.266 295.669 263.201 296.046 262.341 296.732C261.991 297.024 261.67 297.349 261.383 297.703C261.611 297.302 261.915 296.948 262.277 296.661C263.138 295.927 264.235 295.528 265.366 295.535C266.498 295.542 267.589 295.955 268.442 296.7C268.799 296.993 269.098 297.351 269.323 297.755Z" fill="white"/>
</g>
<g opacity="0.4">
<path d="M294.91 254.151L294.327 254.411C293.771 254.667 293.232 254.959 292.714 255.285C290.836 256.532 289.18 258.086 287.818 259.883C286.024 262.104 284.328 265.064 282.055 268.082C280.861 269.662 279.49 271.101 277.968 272.369C276.329 273.725 274.541 274.889 272.638 275.84C268.957 277.669 264.991 278.853 260.91 279.344C257.586 279.747 254.233 279.843 250.891 279.629C248.036 279.46 245.743 279.169 244.163 278.949C242.583 278.728 241.715 278.573 241.715 278.573C241.715 278.573 241.935 278.573 242.362 278.651L244.182 278.897C245.762 279.104 248.068 279.376 250.911 279.544C254.245 279.743 257.589 279.637 260.904 279.227C264.97 278.731 268.922 277.548 272.593 275.73C274.483 274.78 276.262 273.622 277.897 272.278C279.409 271.014 280.775 269.585 281.97 268.017C284.243 265.012 285.947 262.046 287.76 259.831C289.132 258.031 290.804 256.48 292.701 255.246C293.221 254.922 293.765 254.636 294.327 254.391L294.91 254.151Z" fill="white"/>
</g>
<g opacity="0.4">
<path d="M281.718 250.751C281.718 250.751 281.562 250.946 281.258 251.295C280.954 251.645 280.5 252.163 279.866 252.785C279.113 253.556 278.238 254.197 277.275 254.682C276.622 255.001 275.913 255.185 275.188 255.225C274.463 255.265 273.737 255.16 273.053 254.916C272.247 254.626 271.569 254.059 271.142 253.316C270.713 252.489 270.585 251.539 270.78 250.628C270.979 249.655 271.425 248.75 272.075 247.999C272.763 247.208 273.546 246.506 274.406 245.907C276.2 244.522 278.29 243.571 280.513 243.129C281.704 242.929 282.923 242.962 284.101 243.226C285.326 243.496 286.463 244.073 287.404 244.904H287.436V244.942C287.127 246.376 286.693 247.78 286.141 249.139C284.136 253.986 280.714 258.115 276.323 260.984C274.415 262.224 272.345 263.194 270.171 263.866C268.137 264.468 266.02 264.597 264.342 263.82C263.594 263.477 262.926 262.98 262.381 262.362C261.837 261.744 261.428 261.018 261.182 260.232C260.818 259.039 260.864 257.758 261.312 256.593C261.582 255.857 262.001 255.185 262.542 254.618C262.726 254.418 262.93 254.238 263.151 254.08L262.995 254.216C262.842 254.347 262.697 254.488 262.562 254.637C262.033 255.208 261.626 255.88 261.363 256.612C260.927 257.767 260.888 259.034 261.253 260.213C261.49 260.984 261.885 261.698 262.412 262.309C262.94 262.92 263.588 263.415 264.317 263.762C265.968 264.513 268.066 264.41 270.08 263.762C272.242 263.091 274.3 262.121 276.194 260.88C280.564 258.036 283.975 253.94 285.979 249.126C286.531 247.774 286.965 246.376 287.274 244.949V245.014C286.347 244.238 285.259 243.677 284.088 243.374C282.918 243.07 281.694 243.031 280.507 243.259C278.3 243.688 276.224 244.628 274.445 246.004C273.593 246.596 272.817 247.29 272.133 248.07C271.484 248.807 271.037 249.699 270.838 250.661C270.654 251.538 270.775 252.452 271.181 253.251C271.596 253.976 272.255 254.529 273.04 254.812C273.712 255.056 274.426 255.162 275.14 255.126C275.854 255.089 276.554 254.91 277.198 254.598C278.156 254.12 279.031 253.49 279.788 252.733C280.436 252.086 280.882 251.6 281.193 251.257L281.718 250.751Z" fill="white"/>
</g>
<path d="M135.157 273.787H234.753V270.083H138.868C137.885 270.083 136.942 270.473 136.246 271.167C135.551 271.862 135.159 272.804 135.157 273.787Z" fill="#263238"/>
<path d="M160.615 272.997H232.59C233.785 272.997 234.753 272.029 234.753 270.834V217.451C234.753 216.257 233.785 215.288 232.59 215.288H160.615C159.42 215.288 158.452 216.257 158.452 217.451V270.834C158.452 272.029 159.42 272.997 160.615 272.997Z" fill="#263238"/>
<path d="M231.567 218.034H161.638V269.429H231.567V218.034Z" fill="#FAFAFA"/>
<path d="M161.638 269.429C161.638 269.429 161.638 269.105 161.638 268.483C161.638 267.861 161.638 266.935 161.638 265.737C161.638 263.328 161.638 259.805 161.638 255.311C161.638 246.335 161.638 233.499 161.683 218.034L161.599 218.105H231.541L231.444 218.021C231.444 236.679 231.444 254.287 231.444 269.416L231.535 269.338L180.95 269.377H166.702H166.663H180.911H231.554H231.645V269.306C231.645 254.151 231.645 236.569 231.645 217.911V217.82H231.535H161.593H161.502V218.041C161.502 233.525 161.541 246.38 161.547 255.369C161.547 259.85 161.547 263.367 161.547 265.77C161.547 266.968 161.547 267.881 161.547 268.502C161.547 269.124 161.638 269.429 161.638 269.429Z" fill="#263238"/>
<path d="M172.103 231.867H173.049H175.775H185.923L220.402 231.9L220.318 231.815V255.602L220.402 255.518H186.163H176.092H173.385H172.686H172.453H173.385H176.092H186.163L220.402 255.55H220.486V231.653H220.402H185.923H175.775H173.049H172.343L172.103 231.867Z" fill="#E0E0E0"/>
<path d="M172.103 235.863C172.103 235.908 182.912 235.947 196.252 235.947C209.593 235.947 220.402 235.908 220.402 235.863C220.402 235.818 209.593 235.772 196.252 235.772C182.912 235.772 172.103 235.811 172.103 235.863Z" fill="#E0E0E0"/>
<path d="M172.453 239.043C172.453 239.088 183.268 239.127 196.603 239.127C209.937 239.127 220.752 239.088 220.752 239.043C220.752 238.997 209.943 238.958 196.603 238.958C183.262 238.958 172.453 238.997 172.453 239.043Z" fill="#E0E0E0"/>
<path d="M172.103 242.397C172.103 242.443 182.912 242.481 196.252 242.481C209.593 242.481 220.402 242.443 220.402 242.397C220.402 242.352 209.593 242.313 196.252 242.313C182.912 242.313 172.103 242.352 172.103 242.397Z" fill="#E0E0E0"/>
<path d="M172.103 245.668C172.103 245.713 182.912 245.752 196.252 245.752C209.593 245.752 220.402 245.713 220.402 245.668C220.402 245.622 209.593 245.577 196.252 245.577C182.912 245.577 172.103 245.616 172.103 245.668Z" fill="#E0E0E0"/>
<path d="M172.103 248.932C172.103 248.984 182.912 249.022 196.252 249.022C209.593 249.022 220.402 248.984 220.402 248.932C220.402 248.88 209.593 248.848 196.252 248.848C182.912 248.848 172.103 248.886 172.103 248.932Z" fill="#E0E0E0"/>
<path d="M220.402 252.202C220.402 252.157 209.587 252.118 196.252 252.118C182.918 252.118 172.103 252.157 172.103 252.202C172.103 252.247 182.912 252.286 196.252 252.286C209.593 252.286 220.402 252.247 220.402 252.202Z" fill="#E0E0E0"/>
<path d="M210.837 255.952C210.882 255.952 210.921 250.564 210.921 243.913C210.921 237.262 210.882 231.867 210.837 231.867C210.792 231.867 210.753 237.255 210.753 243.913C210.753 250.57 210.792 255.952 210.837 255.952Z" fill="#E0E0E0"/>
<path d="M201.155 255.952C201.2 255.952 201.239 250.564 201.239 243.913C201.239 237.262 201.2 231.867 201.155 231.867C201.11 231.867 201.064 237.255 201.064 243.913C201.064 250.57 201.103 255.952 201.155 255.952Z" fill="#E0E0E0"/>
<path d="M191.467 255.952C191.519 255.952 191.558 250.564 191.558 243.913C191.558 237.262 191.519 231.867 191.467 231.867C191.415 231.867 191.383 237.255 191.383 243.913C191.383 250.57 191.422 255.952 191.467 255.952Z" fill="#E0E0E0"/>
<path d="M181.785 255.952C181.83 255.952 181.869 250.564 181.869 243.913C181.869 237.262 181.83 231.867 181.785 231.867C181.74 231.867 181.701 237.255 181.701 243.913C181.701 250.57 181.74 255.952 181.785 255.952Z" fill="#E0E0E0"/>
<path d="M172.103 255.952C172.149 255.952 172.188 250.564 172.188 243.913C172.188 237.262 172.149 231.867 172.103 231.867C172.058 231.867 172.013 237.255 172.013 243.913C172.013 250.57 172.052 255.952 172.103 255.952Z" fill="#E0E0E0"/>
<path d="M172.103 235.863C172.215 235.966 172.337 236.059 172.466 236.141L173.547 236.912L177.601 239.71C181.053 242.074 185.884 245.363 191.376 249.074L191.441 249.12H191.525L195.637 247.734L201.207 245.849H201.058L210.772 252.358L217.779 254.78L219.722 255.427L220.227 255.583L220.402 255.628L220.24 255.544L219.748 255.35L217.844 254.644L210.882 252.111H210.914L201.246 245.545L201.181 245.499H201.097L195.527 247.377L191.415 248.763H191.564C186.066 245.059 181.202 241.808 177.731 239.49L173.651 236.821L172.53 236.103C172.397 236.007 172.254 235.927 172.103 235.863Z" fill="#F96B7E"/>
<path d="M210.248 252.202C210.248 252.319 210.282 252.433 210.347 252.53C210.412 252.626 210.504 252.702 210.611 252.747C210.719 252.791 210.838 252.803 210.952 252.78C211.066 252.757 211.171 252.701 211.254 252.619C211.336 252.536 211.392 252.431 211.415 252.317C211.438 252.203 211.426 252.084 211.381 251.977C211.337 251.869 211.261 251.777 211.164 251.712C211.067 251.647 210.953 251.613 210.837 251.613C210.681 251.613 210.531 251.675 210.42 251.785C210.31 251.896 210.248 252.046 210.248 252.202Z" fill="#F96B7E"/>
<path d="M200.566 245.668C200.566 245.784 200.6 245.898 200.665 245.995C200.73 246.092 200.822 246.168 200.93 246.212C201.037 246.257 201.156 246.268 201.27 246.246C201.385 246.223 201.49 246.167 201.572 246.084C201.654 246.002 201.711 245.897 201.733 245.783C201.756 245.668 201.744 245.55 201.7 245.442C201.655 245.334 201.58 245.242 201.483 245.178C201.386 245.113 201.272 245.078 201.155 245.078C201.078 245.078 201.001 245.094 200.93 245.123C200.858 245.153 200.793 245.196 200.739 245.251C200.684 245.306 200.64 245.371 200.611 245.442C200.581 245.514 200.566 245.59 200.566 245.668Z" fill="#F96B7E"/>
<path d="M190.877 248.88C190.877 249.036 190.94 249.186 191.05 249.297C191.161 249.407 191.31 249.469 191.467 249.469C191.623 249.469 191.773 249.407 191.883 249.297C191.994 249.186 192.056 249.036 192.056 248.88C192.056 248.724 191.994 248.574 191.883 248.463C191.773 248.353 191.623 248.291 191.467 248.291C191.31 248.291 191.161 248.353 191.05 248.463C190.94 248.574 190.877 248.724 190.877 248.88Z" fill="#F96B7E"/>
<path d="M181.099 242.423C181.099 242.54 181.133 242.654 181.198 242.751C181.263 242.848 181.355 242.923 181.462 242.968C181.57 243.012 181.689 243.024 181.803 243.001C181.917 242.978 182.022 242.922 182.105 242.84C182.187 242.757 182.243 242.652 182.266 242.538C182.289 242.424 182.277 242.305 182.232 242.198C182.188 242.09 182.112 241.998 182.015 241.933C181.918 241.868 181.805 241.834 181.688 241.834C181.532 241.834 181.382 241.896 181.271 242.006C181.161 242.117 181.099 242.267 181.099 242.423Z" fill="#F96B7E"/>
<path d="M172.103 252.202C172.167 252.178 172.228 252.145 172.284 252.105L172.802 251.781L174.745 250.486L181.869 245.804H181.727C184.479 247.662 187.782 249.877 191.389 252.28L191.518 252.37L191.616 252.241C193.215 250.091 194.931 247.772 196.706 245.376L201.297 239.172H201.045L210.759 248.951L217.954 251.289L219.897 251.904L220.408 252.06C220.466 252.082 220.528 252.095 220.59 252.098L220.421 252.021L219.916 251.839L217.973 251.153L210.811 248.711L210.863 248.744C208.194 246.017 204.885 242.656 201.207 238.907L201.071 238.771L200.954 238.926C199.484 240.869 197.943 242.987 196.356 245.13L191.272 252.001L191.499 251.962L181.785 245.486L181.714 245.435L181.642 245.486L174.674 250.421L172.731 251.749L172.239 252.105C172.155 252.15 172.097 252.196 172.103 252.202Z" fill="#455A64"/>
<path d="M200.566 239.127C200.566 239.283 200.628 239.433 200.739 239.544C200.849 239.654 200.999 239.716 201.155 239.716C201.312 239.716 201.461 239.654 201.572 239.544C201.682 239.433 201.745 239.283 201.745 239.127C201.745 238.971 201.682 238.821 201.572 238.71C201.461 238.6 201.312 238.537 201.155 238.537C200.999 238.537 200.849 238.6 200.739 238.71C200.628 238.821 200.566 238.971 200.566 239.127Z" fill="#455A64"/>
<path d="M210.248 248.932C210.248 249.048 210.282 249.162 210.347 249.259C210.412 249.356 210.504 249.432 210.611 249.476C210.719 249.521 210.838 249.532 210.952 249.51C211.066 249.487 211.171 249.431 211.254 249.348C211.336 249.266 211.392 249.161 211.415 249.047C211.438 248.932 211.426 248.814 211.381 248.706C211.337 248.599 211.261 248.506 211.164 248.442C211.067 248.377 210.953 248.342 210.837 248.342C210.759 248.342 210.683 248.358 210.611 248.387C210.54 248.417 210.475 248.46 210.42 248.515C210.365 248.57 210.322 248.635 210.292 248.706C210.263 248.778 210.248 248.854 210.248 248.932Z" fill="#455A64"/>
<path d="M190.877 252.202C190.877 252.319 190.912 252.433 190.977 252.53C191.042 252.626 191.134 252.702 191.241 252.747C191.349 252.791 191.467 252.803 191.582 252.78C191.696 252.757 191.801 252.701 191.883 252.619C191.966 252.536 192.022 252.431 192.045 252.317C192.068 252.203 192.056 252.084 192.011 251.977C191.967 251.869 191.891 251.777 191.794 251.712C191.697 251.647 191.583 251.613 191.467 251.613C191.389 251.613 191.313 251.628 191.241 251.658C191.17 251.687 191.105 251.731 191.05 251.785C190.995 251.84 190.952 251.905 190.922 251.977C190.893 252.048 190.877 252.125 190.877 252.202Z" fill="#455A64"/>
<path d="M181.196 246.257C181.196 246.374 181.23 246.488 181.295 246.584C181.36 246.681 181.452 246.757 181.56 246.802C181.667 246.846 181.786 246.858 181.9 246.835C182.014 246.812 182.119 246.756 182.202 246.674C182.284 246.591 182.34 246.486 182.363 246.372C182.386 246.258 182.374 246.139 182.33 246.032C182.285 245.924 182.209 245.832 182.113 245.767C182.016 245.702 181.902 245.668 181.785 245.668C181.629 245.668 181.479 245.73 181.368 245.84C181.258 245.951 181.196 246.101 181.196 246.257Z" fill="#455A64"/>
<path d="M214.878 258.296C215.18 258.386 215.497 258.417 215.81 258.387C216.124 258.418 216.441 258.387 216.743 258.296C216.44 258.214 216.124 258.185 215.81 258.212C215.497 258.186 215.182 258.214 214.878 258.296Z" fill="#E0E0E0"/>
<path d="M204.982 258.296C205.285 258.386 205.601 258.417 205.915 258.387C206.229 258.418 206.546 258.387 206.848 258.296C206.544 258.214 206.228 258.185 205.915 258.212C205.602 258.186 205.286 258.214 204.982 258.296Z" fill="#E0E0E0"/>
<path d="M195.087 258.296C195.389 258.387 195.706 258.418 196.019 258.387C196.333 258.417 196.65 258.386 196.952 258.296C196.648 258.214 196.333 258.186 196.019 258.212C195.706 258.185 195.39 258.214 195.087 258.296Z" fill="#E0E0E0"/>
<path d="M185.185 258.296C185.487 258.386 185.804 258.417 186.118 258.387C186.431 258.418 186.748 258.387 187.05 258.296C186.747 258.214 186.431 258.185 186.118 258.212C185.804 258.186 185.489 258.214 185.185 258.296Z" fill="#E0E0E0"/>
<path d="M175.29 258.296C175.592 258.387 175.908 258.418 176.222 258.387C176.536 258.417 176.853 258.386 177.155 258.296C176.858 258.21 176.55 258.175 176.242 258.193C175.921 258.17 175.598 258.205 175.29 258.296Z" fill="#E0E0E0"/>
<path d="M221.769 255.46C222.262 255.58 222.777 255.58 223.271 255.46C222.776 255.347 222.263 255.347 221.769 255.46Z" fill="#E0E0E0"/>
<path d="M221.769 251.658C222.262 251.779 222.777 251.779 223.271 251.658C222.776 251.546 222.263 251.546 221.769 251.658Z" fill="#E0E0E0"/>
<path d="M221.769 247.831C222.262 247.952 222.777 247.952 223.271 247.831C222.776 247.719 222.263 247.719 221.769 247.831Z" fill="#E0E0E0"/>
<path d="M221.769 244.055C222.262 244.176 222.777 244.176 223.271 244.055C222.776 243.943 222.263 243.943 221.769 244.055Z" fill="#E0E0E0"/>
<path d="M221.769 240.254C222.262 240.374 222.777 240.374 223.271 240.254C222.776 240.141 222.263 240.141 221.769 240.254Z" fill="#E0E0E0"/>
<path d="M221.769 236.452C222.262 236.573 222.777 236.573 223.271 236.452C222.776 236.34 222.263 236.34 221.769 236.452Z" fill="#E0E0E0"/>
<path d="M221.769 232.651C222.262 232.772 222.777 232.772 223.271 232.651C222.776 232.538 222.263 232.538 221.769 232.651Z" fill="#E0E0E0"/>
<path d="M206.776 224.633H220.655V223.649H206.776V224.633Z" fill="#F96B7E"/>
<path d="M181.992 226.518C181.992 226.57 190.67 226.602 201.369 226.602C212.067 226.602 220.745 226.57 220.745 226.518C220.745 226.466 212.074 226.46 201.369 226.46C190.664 226.46 181.992 226.46 181.992 226.518Z" fill="#263238"/>
<path d="M196.156 263.043C196.156 263.089 201.447 263.127 207.975 263.127C214.503 263.127 219.787 263.089 219.787 263.043C219.787 262.998 214.496 262.959 207.975 262.959C201.453 262.959 196.156 262.998 196.156 263.043Z" fill="#263238"/>
<path d="M214.114 264.831C215.794 264.943 217.479 264.943 219.159 264.831C217.479 264.71 215.793 264.71 214.114 264.831Z" fill="#263238"/>
<path d="M174.732 262.726C174.732 262.778 178.495 262.816 183.151 262.816C187.808 262.816 191.57 262.778 191.57 262.726C191.57 262.674 187.808 262.642 183.151 262.642C178.495 262.642 174.732 262.68 174.732 262.726Z" fill="#263238"/>
<path d="M183.87 263.885C185.619 263.997 187.373 263.997 189.122 263.885C187.374 263.764 185.619 263.764 183.87 263.885Z" fill="#263238"/>
<path d="M127.509 271.935H58.1885V298.221H127.509V271.935Z" fill="#263238"/>
<path d="M173.45 176.095C173.45 176.095 170.989 173.848 170.212 171.283C169.531 169.334 168.35 167.599 166.786 166.251C166.359 165.927 164.649 164.004 164.649 164.004C164.649 164.004 164.436 162.061 166.896 162.288C169.38 162.49 171.702 163.596 173.424 165.396C175.134 167.216 176.099 166.141 177.278 165.5C178.456 164.859 181.986 163.68 182.627 161.543C183.268 159.406 186.694 152.872 186.694 152.872C186.694 152.872 190.223 146.881 191.298 147.095C192.373 147.309 192.982 148.021 192.555 149.523C192.127 151.026 188.837 159.613 189.479 160.688C190.12 161.763 190.774 161.543 191.298 161.006C191.823 160.468 200.877 149.815 202.806 149.938C204.736 150.061 204.678 151.693 203.713 152.982C202.748 154.27 194.938 163.894 194.938 163.894L199.86 160.468C199.86 160.468 205.002 155.753 206.142 155.935C207.825 156.239 207.107 158.7 205.637 160.345C204.264 161.88 200.611 165.908 200.611 165.908L197.075 170.512C197.075 170.512 205.552 166.847 206.083 167.702C206.614 168.557 206.731 169.845 206.083 170.376C205.436 170.907 198.04 175.007 198.04 175.007L189.155 184.721L173.45 176.095Z" fill="#FFBE9D"/>
<path d="M67.7599 143.798L98.7352 143.397L99.6936 116.936C99.6936 116.936 101.811 116.482 101.954 105C102.096 93.5179 102.601 73.9924 102.601 73.9924C96.0712 71.1876 88.9108 70.1764 81.8593 71.0632C74.8077 71.9501 68.1207 74.7028 62.4884 79.0373L60.7852 80.3325L67.7405 119.189L67.7599 143.798Z" fill="#FFBE9D"/>
<path d="M64.4052 94.4764C64.2109 94.3922 56.5108 92.1385 56.7634 99.9941C57.016 107.85 64.8521 106.004 64.8521 105.751C64.8521 105.499 64.4052 94.4764 64.4052 94.4764Z" fill="#FFBE9D"/>
<path d="M101.287 92.8315C101.488 92.7473 108.488 90.8886 108.236 98.7183C107.983 106.548 100.153 104.696 100.147 104.469C100.141 104.242 101.287 92.8315 101.287 92.8315Z" fill="#FFBE9D"/>
<path d="M110.101 70.1456C110.181 69.4338 110.08 68.7132 109.807 68.0508C109.534 67.3884 109.098 66.8058 108.54 66.3571C107.963 65.9374 107.255 65.7363 106.544 65.7897C105.832 65.843 105.162 66.1474 104.654 66.6485C104.762 66.1686 104.767 65.6715 104.671 65.1893C104.574 64.7071 104.377 64.2506 104.092 63.8494C103.808 63.4483 103.442 63.1114 103.019 62.8606C102.596 62.6098 102.125 62.4508 101.636 62.3937C99.7647 62.2772 98.1651 63.6889 96.3518 64.1876C94.5385 64.6863 92.6928 64.2524 90.9896 63.54C89.2864 62.8276 87.6868 61.9663 85.9641 61.3187C82.3286 59.9924 78.3166 60.1545 74.7999 61.7698C71.2833 63.385 68.5461 66.3229 67.1834 69.9449C64.6707 69.1548 61.8212 70.4306 60.2669 72.5353C58.7127 74.6401 58.3241 77.4572 58.6285 80.0735C58.8685 81.8428 59.3029 83.5803 59.9237 85.2544C59.9237 85.3969 59.9237 85.5458 59.9237 85.6948C60.0467 92.009 63.3366 111.968 66.0307 112.014C70.7323 112.085 67.0345 90.6879 67.0345 90.6879C72.7982 88.4666 70.6481 79.8274 72.0923 78.5192C73.5365 77.2111 76.5479 74.1608 88.6129 80.3326C93.3016 82.7287 99.5316 82.651 102.932 81.8803L103.236 81.8156H103.307C103.34 81.8043 103.373 81.7913 103.404 81.7767C104.497 81.5081 105.541 81.0711 106.5 80.4815C107.631 79.832 108.525 78.8382 109.051 77.645C109.301 77.0472 109.373 76.3899 109.258 75.7522C109.144 75.1145 108.847 74.5237 108.404 74.0507C109.342 72.9449 109.933 71.5862 110.101 70.1456Z" fill="#263238"/>
<path d="M61.8604 93.5957C63.0325 100.175 62.7994 103.634 63.8874 108.031C65.6035 114.986 69.0683 120.336 75.3242 123.794C81.5801 127.252 90.0638 127.207 95.452 122.499C99.1757 119.196 101.831 115.485 102.414 110.537C102.997 105.589 103.521 96.8467 103.554 91.8795C103.618 82.9101 104.201 74.3357 104.201 74.3357L78.5752 69.7377L63.9975 78.3768L61.8604 93.5957Z" fill="#263238"/>
<path d="M88.283 127.757C88.3218 127.945 86.3078 128.444 83.795 128.159C81.2823 127.874 79.4237 126.961 79.5014 126.792C79.5791 126.624 81.4442 127.187 83.8727 127.44C86.3013 127.692 88.2506 127.55 88.283 127.757Z" fill="#263238"/>
<path d="M94.9465 68.559C94.5556 68.699 94.1442 68.7733 93.729 68.7792C92.5891 68.7908 91.4632 68.5288 90.4456 68.015C88.9693 67.2362 87.5799 66.3027 86.3009 65.2303C84.7531 63.9277 82.8828 63.0664 80.8869 62.737C79.0686 62.4687 77.2115 62.737 75.5435 63.5089C73.8754 64.2808 72.4689 65.5228 71.4965 67.0824C70.7015 68.3854 70.1834 69.8382 69.9746 71.3502C69.9749 70.9367 70.0183 70.5243 70.1041 70.1197C70.3813 68.7364 70.9565 67.4301 71.7897 66.2915C72.6229 65.153 73.6941 64.2097 74.9288 63.5271C76.7644 62.5453 78.8634 62.169 80.9257 62.452C82.972 62.7919 84.8853 63.688 86.4563 65.0425C87.7197 66.1123 89.0865 67.0538 90.5363 67.8531C91.521 68.3703 92.6107 68.656 93.7225 68.6885C94.1327 68.6699 94.5415 68.6267 94.9465 68.559Z" fill="white"/>
<path d="M70.3376 71.7905C69.7465 71.5067 69.1309 71.277 68.4984 71.104C67.7334 70.9126 66.9376 70.8768 66.1584 70.9988C65.3793 71.1208 64.6326 71.3982 63.9627 71.8144C63.2928 72.2306 62.7133 72.7772 62.2587 73.4216C61.8041 74.0661 61.4837 74.7954 61.3164 75.5661C61.1928 76.2066 61.1256 76.8567 61.1157 77.5089C61.0601 77.3372 61.0295 77.1583 61.025 76.9779C60.9872 76.4857 61.0199 75.9907 61.1221 75.5078C61.2729 74.6999 61.5905 73.9324 62.0545 73.2541C62.5186 72.5758 63.1189 72.0017 63.8173 71.5685C64.5156 71.1352 65.2966 70.8523 66.1104 70.7378C66.9242 70.6232 67.753 70.6796 68.5438 70.9033C69.0206 71.0315 69.478 71.2232 69.9037 71.4732C70.0643 71.5553 70.2107 71.6624 70.3376 71.7905Z" fill="#455A64"/>
<path d="M69.5799 99.7997C69.3986 99.8774 68.4337 98.0771 67.4299 95.7716C66.4261 93.4661 65.759 91.5362 65.9404 91.4585C66.1217 91.3808 67.0802 93.1811 68.084 95.4866C69.0878 97.7921 69.7613 99.722 69.5799 99.7997Z" fill="#455A64"/>
<path d="M76.289 104.307C76.1853 104.463 74.2296 103.109 72.6623 100.687C71.0951 98.2649 70.6224 95.94 70.8037 95.9076C70.985 95.8752 71.7427 97.9929 73.2646 100.292C74.7865 102.591 76.4314 104.145 76.289 104.307Z" fill="#455A64"/>
<path d="M82.9142 105.758C82.8106 105.926 81.3534 105.188 79.851 103.873C78.3485 102.559 77.4095 101.211 77.5584 101.088C77.7074 100.965 78.8537 102.06 80.3173 103.329C81.7809 104.598 83.0243 105.589 82.9142 105.758Z" fill="#455A64"/>
<path d="M94.6423 95.1175C94.8301 95.1175 94.8107 96.9632 93.9494 99.0032C93.0881 101.043 91.8058 102.384 91.6698 102.241C91.5338 102.099 92.4858 100.668 93.2824 98.7117C94.0789 96.7559 94.4027 95.0916 94.6423 95.1175Z" fill="#455A64"/>
<path d="M98.5734 88.9135C98.7612 88.9135 98.949 91.1348 98.1265 93.7252C97.304 96.3157 95.8858 98.0513 95.7433 97.9347C95.6008 97.8181 96.6759 95.9919 97.44 93.5115C98.2042 91.0312 98.3661 88.907 98.5734 88.9135Z" fill="#455A64"/>
<path d="M101.617 73.0405C101.314 73.3496 100.969 73.6154 100.594 73.8306C99.5625 74.4291 98.4088 74.7856 97.2197 74.8732C95.4549 74.9977 93.6846 74.7256 92.0388 74.0767C90.0564 73.2693 88.1382 72.3124 86.3009 71.2142C84.4766 70.1249 82.517 69.2801 80.4724 68.7015C78.8029 68.238 77.0387 68.238 75.3692 68.7015C74.2456 69.0145 73.2174 69.602 72.3773 70.4112C71.7944 71.0005 71.5742 71.4085 71.5483 71.3891C71.742 71.0001 71.9955 70.6439 72.2996 70.3335C73.1263 69.4718 74.1647 68.8421 75.311 68.5072C77.012 68.0001 78.8195 67.9687 80.5372 68.4165C82.6074 68.9893 84.5916 69.8366 86.4369 70.9357C88.2645 72.029 90.1692 72.9878 92.1359 73.8047C93.7424 74.4508 95.4713 74.736 97.2002 74.6401C98.8003 74.5658 100.34 74.008 101.617 73.0405Z" fill="#455A64"/>
<path d="M103.897 76.7642C103.772 76.8739 103.633 76.9654 103.482 77.0362C103.089 77.2651 102.68 77.4664 102.258 77.6385C100.873 78.2237 99.4045 78.5907 97.9064 78.7264C96.4071 78.8626 94.8958 78.7687 93.4249 78.448C92.9865 78.3499 92.554 78.2267 92.1297 78.0788C91.9667 78.0369 91.8115 77.9692 91.6699 77.8781C91.6699 77.8327 92.3629 78.0465 93.4768 78.2472C94.9345 78.5013 96.419 78.5666 97.8935 78.4415C99.3661 78.3004 100.814 77.9673 102.2 77.4507C103.249 77.0491 103.877 76.7188 103.897 76.7642Z" fill="#455A64"/>
<path d="M30.7427 149.679C30.7427 149.679 37.5037 181.114 41.7521 194.137C47.7554 212.646 54.374 229.51 54.374 229.51C54.374 229.51 49.8407 270.704 47.3669 285.742L45.0549 298.636H66.5491L71.6911 277.148L74.3917 298.636L136.983 298.467L129.005 227.373L127.282 197.731L131.038 149.679L100.866 137.95L64.535 136.785L30.7427 149.679Z" fill="#F96B7E"/>
<path d="M20.3419 237.566C17.2145 232.014 15.9225 225.615 16.6505 219.284C17.9976 209.052 26.0474 168.466 26.0474 168.466L30.7426 149.685L48.8757 190.945L45.8578 226.168L54.6459 230.701L51.7964 251.859C51.7964 251.859 22.2524 241.627 20.3419 237.566Z" fill="#F96B7E"/>
<path d="M114.342 185.537C115.048 186.515 146.211 230.326 154.993 235.215C162.926 239.626 170.646 238.499 172.997 235.144C175.347 231.789 189.744 187.603 189.744 187.603C189.744 187.603 184.401 174.949 173.003 176.289L161.929 198.956C161.929 198.956 148.828 179.333 147.15 174.728C145.473 170.124 131.472 149.057 131.044 149.659C129.386 152.023 110.314 179.961 114.342 185.537Z" fill="#F96B7E"/>
<path d="M64.5347 137.536L67.4424 130.043C67.4424 130.043 98.6638 130.911 99.1754 131.086L101.364 138.151L79.8183 140.832L64.5347 137.536Z" fill="#F96B7E"/>
<path d="M67.436 130.043L67.7598 128.631L98.9294 130.043L99.1819 131.086L67.436 130.043Z" fill="#F5F5F5"/>
<g opacity="0.3">
<path d="M47.2049 210.23C39.7962 196.676 34.9003 179.216 31.2542 164.205C30.38 178.31 30.8592 194.552 35.1852 208.003C36.6553 212.568 41.6225 219.757 46.2918 220.864C46.5055 221.02 46.8034 213.857 47.2049 210.23Z" fill="black"/>
</g>
<path d="M50.8251 259.792C50.8168 259.745 50.8168 259.697 50.8251 259.65L50.864 259.222C50.864 258.834 50.9482 258.283 51.0194 257.584C51.1684 256.127 51.3821 254.035 51.667 251.393C52.2304 246.069 53.0335 238.544 53.9855 229.672V229.736C51.8548 223.733 49.3097 217.069 46.6092 210.069C44.0641 203.456 41.6355 197.155 39.5632 191.378C37.4908 185.602 35.7293 180.369 34.3823 175.907C31.6753 167.015 30.5938 161.362 30.5938 161.362C30.6265 161.446 30.6525 161.532 30.6715 161.621C30.7168 161.802 30.7816 162.055 30.8657 162.372C31.0406 163.052 31.2867 164.023 31.5975 165.267C31.9084 166.51 32.3488 168.052 32.828 169.832C33.3072 171.613 33.9095 173.621 34.6089 175.836C35.9689 180.272 37.7369 185.505 39.8416 191.275C41.9464 197.045 44.3749 203.333 46.9136 209.945C49.6076 216.953 52.1463 223.617 54.2639 229.633V229.672V229.698C53.2666 238.57 52.4182 246.089 51.8224 251.406C51.5181 254.041 51.272 256.133 51.1036 257.584C51.0129 258.29 50.9482 258.834 50.8964 259.222L50.8381 259.643C50.8371 259.693 50.8328 259.743 50.8251 259.792Z" fill="#263238"/>
<path d="M127.418 202.828C127.418 202.828 127.379 202.796 127.321 202.725L127.042 202.381C126.809 202.083 126.44 201.65 126.019 201.054C124.797 199.396 123.677 197.666 122.665 195.873C121.15 193.217 119.9 190.419 118.934 187.519C117.737 183.964 117.048 180.257 116.888 176.509C116.767 172.753 117.268 169.002 118.371 165.409C119.263 162.475 120.595 159.693 122.321 157.159C123.478 155.451 124.832 153.886 126.356 152.496C126.88 151.991 127.353 151.667 127.651 151.421L127.994 151.155C128.079 151.097 128.117 151.065 128.124 151.071C128.095 151.113 128.06 151.15 128.02 151.181L127.696 151.473C127.418 151.738 126.958 152.075 126.453 152.593C124.973 154.01 123.654 155.587 122.522 157.295C120.845 159.827 119.549 162.591 118.675 165.5C117.598 169.067 117.11 172.785 117.231 176.509C117.398 180.222 118.078 183.895 119.252 187.422C120.202 190.308 121.423 193.099 122.898 195.756C123.882 197.554 124.963 199.296 126.136 200.976C126.537 201.578 126.887 202.025 127.101 202.343L127.353 202.699C127.381 202.739 127.403 202.782 127.418 202.828Z" fill="#263238"/>
<g opacity="0.3">
<path d="M117.173 177.694C118.999 194.532 122.406 211.273 129.011 226.868L127.47 203.618C122.458 195.691 118.966 186.9 117.173 177.694Z" fill="black"/>
</g>
<g opacity="0.3">
<path d="M60.9668 211.862C71.437 228.016 85.6708 241.387 102.446 250.829L60.9668 211.862Z" fill="black"/>
</g>
<path d="M45.8965 225.469C45.8965 225.534 45.1711 225.274 43.9536 225.132C43.2599 225.045 42.5593 225.025 41.8618 225.074C41.0087 225.138 40.1645 225.289 39.3426 225.527C38.5326 225.78 37.7495 226.111 37.0048 226.518C36.3963 226.863 35.8199 227.262 35.2821 227.709C34.4143 228.48 33.9286 229.05 33.8768 229.05C33.825 229.05 33.961 228.882 34.1617 228.603C34.2826 228.435 34.4168 228.277 34.5633 228.13C34.7401 227.92 34.9328 227.723 35.1396 227.541C35.6659 227.049 36.2434 226.615 36.8623 226.246C37.6251 225.806 38.4355 225.454 39.2779 225.197C40.1216 224.951 40.9908 224.803 41.8683 224.756C42.5854 224.725 43.3038 224.769 44.0119 224.886C44.283 224.927 44.5512 224.986 44.8149 225.061C45.0186 225.106 45.2179 225.169 45.4107 225.249C45.5842 225.293 45.7486 225.368 45.8965 225.469Z" fill="#263238"/>
<path d="M167.052 212.62C166.816 211.907 166.624 211.18 166.475 210.444C166.138 209.097 165.64 207.245 164.979 205.263C164.319 203.282 163.632 201.462 163.108 200.18C162.794 199.496 162.519 198.796 162.285 198.081C162.414 198.239 162.521 198.413 162.602 198.599C162.784 198.943 163.036 199.448 163.328 200.082C164.078 201.738 164.738 203.433 165.303 205.16C165.869 206.885 166.338 208.641 166.708 210.418C166.844 211.105 166.948 211.662 167 212.044C167.043 212.233 167.06 212.427 167.052 212.62Z" fill="#263238"/>
<path d="M163.989 220.631C163.88 220.365 163.795 220.09 163.736 219.809C163.593 219.271 163.412 218.513 163.211 217.529C162.69 215.005 162.307 212.454 162.065 209.887C161.819 207.324 161.711 204.749 161.741 202.174C161.741 201.183 161.793 200.387 161.832 199.836C161.828 199.549 161.859 199.262 161.923 198.981C161.96 199.265 161.973 199.551 161.962 199.836C161.962 200.484 161.962 201.242 161.962 202.174C161.994 204.117 162.098 206.863 162.382 209.861C162.667 212.86 163.082 215.541 163.425 217.484L163.846 219.776C163.927 220.055 163.974 220.342 163.989 220.631Z" fill="#263238"/>
<path d="M108.041 253.18L107.88 253.141L107.407 252.986C106.992 252.843 106.371 252.668 105.6 252.338C103.401 251.52 101.257 250.559 99.1821 249.463C96.0997 247.854 93.1464 246.01 90.3487 243.945C86.9284 241.402 83.6949 238.616 80.6734 235.61C75.2546 230.087 70.2359 224.186 65.6553 217.95C63.8744 215.573 62.4561 213.637 61.4912 212.29L60.3773 210.736L60.0988 210.328C60.034 210.23 60.0017 210.185 60.0081 210.179C60.0519 210.215 60.091 210.256 60.1247 210.302L60.4356 210.697L61.6142 212.212L65.8625 217.801C70.4899 223.986 75.5244 229.855 80.9325 235.371C83.9431 238.367 87.1587 241.15 90.556 243.699C93.3329 245.777 96.2594 247.647 99.3117 249.294C101.371 250.402 103.492 251.391 105.665 252.254C106.429 252.578 107.044 252.772 107.446 252.94L107.912 253.122C107.996 253.148 108.048 253.174 108.041 253.18Z" fill="#263238"/>
<g opacity="0.3">
<path d="M45.8902 225.553C42.3024 224.303 37.3935 225.624 34.5052 228.37C33.7934 228.997 33.2388 229.782 32.8861 230.663C32.7137 231.104 32.6423 231.579 32.677 232.052C32.7117 232.525 32.8518 232.984 33.0869 233.395C33.8511 234.594 35.5543 234.924 36.8948 234.451C38.2136 233.889 39.3296 232.938 40.094 231.725C40.8521 230.522 41.6781 229.363 42.5679 228.253C43.0168 227.701 43.5768 227.249 44.2116 226.926C44.8464 226.604 45.5418 226.418 46.2528 226.382L45.8384 226.162L45.8902 225.553Z" fill="black"/>
</g>
<g opacity="0.3">
<path d="M50.8509 228.759L49.7759 251.166L51.777 251.872L54.0436 230.416L50.8509 228.759Z" fill="black"/>
</g>
<g opacity="0.3">
<path d="M161.994 198.975C161.794 206.82 162.617 214.657 164.442 222.289C164.688 223.319 165.4 224.614 166.385 224.303C167.369 223.992 167.298 222.684 167.071 221.713C166.333 218.574 165.597 215.433 164.863 212.29L161.754 199.046" fill="black"/>
</g>
<path d="M173.003 176.289L173.858 174.398C173.858 174.398 181.209 172.203 185.91 176.289C190.612 180.376 191.091 183.84 191.091 183.84L189.394 186.858C189.394 186.858 184.252 176.134 173.003 176.289Z" fill="#FAFAFA"/>
<path d="M100.264 137.782C100.146 137.823 100.025 137.849 99.9009 137.86L98.8518 138.002C97.9387 138.125 96.6175 138.268 94.9661 138.404C90.6952 138.757 86.4078 138.872 82.124 138.747C77.8396 138.626 73.5653 138.267 69.3207 137.672C67.6952 137.439 66.3806 137.219 65.4804 137.024L64.4377 136.824C64.3154 136.806 64.1957 136.774 64.0815 136.727C64.2042 136.712 64.3281 136.712 64.4507 136.727L65.4998 136.869C66.4065 137.005 67.7211 137.186 69.3855 137.387C72.6235 137.795 77.1568 138.223 82.1629 138.365C87.1689 138.508 91.7022 138.365 94.9791 138.125C96.6175 138.015 97.9387 137.912 98.8647 137.828L99.9203 137.743C100.036 137.748 100.15 137.761 100.264 137.782Z" fill="#263238"/>
<path d="M69.295 266.106C69.3856 266.106 70.5902 273.366 71.9955 282.348C73.4008 291.331 74.4564 298.623 74.3658 298.636C74.2751 298.649 73.0706 291.383 71.6652 282.4C70.2599 273.418 69.2043 266.126 69.295 266.106Z" fill="#263238"/>
<path d="M310.984 298.688C310.984 298.778 243.69 298.856 160.738 298.856C77.7854 298.856 10.4468 298.778 10.4468 298.688C10.4468 298.597 77.7206 298.519 160.738 298.519C243.755 298.519 310.984 298.597 310.984 298.688Z" fill="#263238"/>
<path d="M120.742 112.111L127.432 100.331C123.299 93.618 121.827 85.602 123.305 77.8587C124.783 70.1154 129.103 63.2048 135.417 58.4852C141.731 53.7656 149.582 51.5784 157.427 52.3535C165.272 53.1286 172.544 56.8098 177.812 62.6738C183.081 68.5377 185.965 76.1601 185.899 84.0429C185.833 91.9257 182.821 99.4987 177.455 105.273C172.089 111.048 164.757 114.607 156.9 115.25C149.043 115.894 141.23 113.575 134.996 108.75L120.742 112.111Z" fill="white"/>
<path d="M120.741 112.111L134.989 108.672L134.943 108.808L134.555 108.303L135.06 108.691C137.061 110.222 139.235 111.513 141.536 112.538C144.271 113.75 147.165 114.564 150.13 114.954C151.769 115.179 153.425 115.259 155.078 115.194C155.933 115.142 156.8 115.116 157.668 115.038L160.31 114.637C168.164 113.071 175.13 108.58 179.797 102.073C182.387 98.4755 184.18 94.3666 185.056 90.0209C185.947 85.4248 185.816 80.689 184.674 76.149C183.499 71.4055 181.207 67.0114 177.99 63.3328L176.695 61.934C176.274 61.4612 175.775 61.0726 175.322 60.6387C174.869 60.2048 174.422 59.7709 173.91 59.4083L172.414 58.2879C171.922 57.912 171.405 57.5701 170.866 57.2647L169.286 56.2997L167.622 55.4902C167.08 55.2103 166.522 54.9617 165.951 54.7455C161.512 52.9913 156.737 52.2543 151.976 52.5889C147.472 52.8944 143.09 54.1855 139.14 56.371C132.041 60.3146 126.724 66.8298 124.284 74.5753C123.309 77.8745 122.841 81.303 122.898 84.7428C122.972 87.731 123.476 90.6929 124.394 93.5374C125.163 95.9014 126.204 98.1681 127.496 100.292V100.337V100.376C123.163 107.908 121.02 111.619 120.735 112.117C121.02 111.619 123.112 107.875 127.353 100.298V100.376C126.039 98.2482 124.98 95.9722 124.2 93.5957C123.262 90.7366 122.743 87.757 122.658 84.7493C122.588 81.2824 123.049 77.8252 124.025 74.4976C126.472 66.6755 131.826 60.0902 138.985 56.099C142.969 53.8871 147.391 52.5782 151.937 52.2651C156.746 51.9209 161.572 52.6647 166.055 54.4411C166.634 54.654 167.199 54.9049 167.745 55.1923L169.416 56.0018L171.015 56.9733C171.562 57.2807 172.086 57.627 172.583 58.0094L174.092 59.1363C174.61 59.5054 175.044 59.9717 175.523 60.3862C176.002 60.8006 176.488 61.2151 176.909 61.6814L178.204 63.0997C181.45 66.8199 183.763 71.2598 184.952 76.0519C186.109 80.6407 186.237 85.4285 185.328 90.0727C184.44 94.4617 182.625 98.6105 180.004 102.241C175.286 108.804 168.247 113.323 160.317 114.883L157.655 115.284C156.774 115.362 155.9 115.381 155.065 115.427C153.399 115.49 151.73 115.407 150.078 115.181C144.561 114.436 139.342 112.236 134.956 108.808L135.073 108.691L135.157 108.795H135.028L120.741 112.111Z" fill="#263238"/>
<path d="M145.61 83.3375C145.61 83.8499 145.458 84.3507 145.173 84.7767C144.888 85.2027 144.484 85.5347 144.01 85.7308C143.537 85.9268 143.016 85.9781 142.514 85.8782C142.011 85.7782 141.55 85.5315 141.187 85.1692C140.825 84.807 140.578 84.3454 140.478 83.8429C140.379 83.3404 140.43 82.8195 140.626 82.3462C140.822 81.8729 141.154 81.4683 141.58 81.1836C142.006 80.899 142.507 80.7471 143.019 80.7471C143.706 80.7471 144.365 81.02 144.851 81.5058C145.337 81.9916 145.61 82.6505 145.61 83.3375Z" fill="#263238"/>
<path d="M156.036 83.3375C156.036 83.8499 155.884 84.3507 155.6 84.7767C155.315 85.2027 154.911 85.5347 154.437 85.7308C153.964 85.9268 153.443 85.9781 152.941 85.8782C152.438 85.7782 151.976 85.5315 151.614 85.1692C151.252 84.807 151.005 84.3454 150.905 83.8429C150.805 83.3404 150.857 82.8195 151.053 82.3462C151.249 81.8729 151.581 81.4683 152.007 81.1836C152.433 80.899 152.934 80.7471 153.446 80.7471C154.133 80.7471 154.792 81.02 155.278 81.5058C155.763 81.9916 156.036 82.6505 156.036 83.3375Z" fill="#263238"/>
<path d="M166.443 82.0422C166.696 82.4862 166.812 82.995 166.777 83.5047C166.741 84.0144 166.556 84.5022 166.244 84.9067C165.931 85.3113 165.507 85.6145 165.023 85.7782C164.539 85.942 164.017 85.959 163.524 85.8271C163.03 85.6951 162.586 85.4202 162.249 85.0368C161.911 84.6534 161.694 84.1787 161.626 83.6724C161.557 83.1661 161.64 82.6509 161.863 82.1914C162.086 81.7319 162.441 81.3488 162.881 81.0903C163.177 80.9167 163.505 80.8036 163.845 80.7575C164.184 80.7114 164.53 80.7333 164.861 80.8219C165.193 80.9104 165.503 81.0639 165.775 81.2734C166.046 81.4829 166.274 81.7442 166.443 82.0422Z" fill="#263238"/>
</svg>
