<svg width="310" height="508" viewBox="0 0 310 508" fill="none" xmlns="http://www.w3.org/2000/svg">
<path id="Vector" fill-rule="evenodd" clip-rule="evenodd" d="M248.847 15.3976C290.317 33.7625 293.162 97.3537 332.648 119.671C372.761 142.343 433.658 107.143 467.158 138.786C498.597 168.482 494.086 222.322 486.39 264.889C479.22 304.544 442.266 330.334 425.869 367.143C406.97 409.57 420.958 470.586 382.907 497.201C345.608 523.291 294.232 494.341 248.847 490.965C207.015 487.853 163.417 496.691 125.821 478.079C87.3139 459.015 59.8943 423.666 38.0925 386.627C16.1689 349.381 -2.76611 308.002 0.334084 264.889C3.36517 222.737 37.9613 191.574 54.9022 152.861C74.3325 108.459 67.9786 47.9893 107.511 19.9697C146.64 -7.76431 204.997 -4.02116 248.847 15.3976Z" fill="#97C9D2" fill-opacity="0.35"/>
</svg>
